/* XPM */
static char *_c51d9c2a5e747a4db2d3c5efbcaf97a[] = {
/* columns rows colors chars-per-pixel */
"64 64 256 2 ",
"   c black",
".  c #0000A8",
"X  c #00A800",
"o  c #00A8A8",
"O  c #A80000",
"+  c #A800A8",
"@  c #A85400",
"#  c gray66",
"$  c gray33",
"%  c #5454FC",
"&  c #54FC54",
"*  c #54FCFC",
"=  c #FC5454",
"-  c #FC54FC",
";  c #FCFC54",
":  c gray99",
">  c #ECECEC",
",  c gainsboro",
"<  c #D0D0D0",
"1  c #C0C0C0",
"2  c #B4B4B4",
"3  c gray66",
"4  c #989898",
"5  c gray55",
"6  c #7C7C7C",
"7  c gray44",
"8  c #646464",
"9  c gray33",
"0  c #484848",
"q  c gray22",
"w  c #2C2C2C",
"e  c #202020",
"r  c #FC0000",
"t  c #EC0000",
"y  c #E00000",
"u  c #D40000",
"i  c #C80000",
"p  c #BC0000",
"a  c #B00000",
"s  c #A40000",
"d  c #980000",
"f  c #880000",
"g  c #7C0000",
"h  c #700000",
"j  c #640000",
"k  c #580000",
"l  c #4C0000",
"z  c #400000",
"x  c #FCD8D8",
"c  c #FCB8B8",
"v  c #FC9C9C",
"b  c #FC7C7C",
"n  c #FC5C5C",
"m  c #FC4040",
"M  c #FC2020",
"N  c #FC0000",
"B  c #FCA85C",
"V  c #FC9840",
"C  c #FC8820",
"Z  c #FC7800",
"A  c #E46C00",
"S  c #CC6000",
"D  c #B45400",
"F  c #9C4C00",
"G  c #FCFCD8",
"H  c #FCFCB8",
"J  c #FCFC9C",
"K  c #FCFC7C",
"L  c #FCF85C",
"P  c #FCF440",
"I  c #FCF420",
"U  c #FCF400",
"Y  c #E4D800",
"T  c #CCC400",
"R  c #B4AC00",
"E  c #9C9C00",
"W  c #848400",
"Q  c #706C00",
"!  c #585400",
"~  c #404000",
"^  c #D0FC5C",
"/  c #C4FC40",
"(  c #B4FC20",
")  c #A0FC00",
"_  c #90E400",
"`  c #80CC00",
"'  c #74B400",
"]  c #609C00",
"[  c #D8FCD8",
"{  c #BCFCB8",
"}  c #9CFC9C",
"|  c #80FC7C",
" . c #60FC5C",
".. c #40FC40",
"X. c #20FC20",
"o. c #00FC00",
"O. c #00FC00",
"+. c #00EC00",
"@. c #00E000",
"#. c #00D400",
"$. c #04C800",
"%. c #04BC00",
"&. c #04B000",
"*. c #04A400",
"=. c #049800",
"-. c #048800",
";. c #047C00",
":. c #047000",
">. c #046400",
",. c #045800",
"<. c #044C00",
"1. c #044000",
"2. c #D8FCFC",
"3. c #B8FCFC",
"4. c #9CFCFC",
"5. c #7CFCF8",
"6. c #5CFCFC",
"7. c #40FCFC",
"8. c #20FCFC",
"9. c #00FCFC",
"0. c #00E4E4",
"q. c #00CCCC",
"w. c #00B4B4",
"e. c #009C9C",
"r. c #008484",
"t. c #007070",
"y. c #005858",
"u. c #004040",
"i. c #5CBCFC",
"p. c #40B0FC",
"a. c #20A8FC",
"s. c #009CFC",
"d. c #008CE4",
"f. c #007CCC",
"g. c #006CB4",
"h. c #005C9C",
"j. c #D8D8FC",
"k. c #B8BCFC",
"l. c #9C9CFC",
"z. c #7C80FC",
"x. c #5C60FC",
"c. c #4040FC",
"v. c #2024FC",
"b. c #0004FC",
"n. c #0000FC",
"m. c #0000EC",
"M. c #0000E0",
"N. c #0000D4",
"B. c #0000C8",
"V. c #0000BC",
"C. c #0000B0",
"Z. c #0000A4",
"A. c #000098",
"S. c #000088",
"D. c #00007C",
"F. c #000070",
"G. c #000064",
"H. c #000058",
"J. c #00004C",
"K. c #000040",
"L. c #282828",
"P. c #FCE034",
"I. c #FCD424",
"U. c #FCCC18",
"Y. c #FCC008",
"T. c #FCB400",
"R. c #B420FC",
"E. c #A800FC",
"W. c #9800E4",
"Q. c #8000CC",
"!. c #7400B4",
"~. c #60009C",
"^. c #500084",
"/. c #440070",
"(. c #340058",
"). c #280040",
"_. c #FCD8FC",
"`. c #FCB8FC",
"'. c #FC9CFC",
"]. c #FC7CFC",
"[. c #FC5CFC",
"{. c #FC40FC",
"}. c #FC20FC",
"|. c #FC00FC",
" X c #E000E4",
".X c #C800CC",
"XX c #B400B4",
"oX c #9C009C",
"OX c #840084",
"+X c #6C0070",
"@X c #580058",
"#X c #400040",
"$X c #FCE8DC",
"%X c #FCE0D0",
"&X c #FCD8C4",
"*X c #FCD4BC",
"=X c #FCCCB0",
"-X c #FCC4A4",
";X c #FCBC9C",
":X c #FCB890",
">X c #FCB080",
",X c #FCA470",
"<X c #FC9C60",
"1X c #F0945C",
"2X c #E88C58",
"3X c #DC8854",
"4X c #D08050",
"5X c #C87C4C",
"6X c #BC7848",
"7X c #B47044",
"8X c #A86840",
"9X c #A0643C",
"0X c #9C6038",
"qX c #905C34",
"wX c #885830",
"eX c #80502C",
"rX c #744C28",
"tX c #6C4824",
"yX c #5C4020",
"uX c #543C1C",
"iX c #483818",
"pX c #403018",
"aX c #382C14",
"sX c #28200C",
"dX c #600064",
"fX c #006464",
"gX c #006060",
"hX c #00001C",
"jX c #00002C",
"kX c #302410",
"lX c #480048",
"zX c #500050",
"xX c #000034",
"cX c gray11",
"vX c #4C4C4C",
"bX c gray36",
"nX c gray25",
"mX c gray19",
"MX c #343434",
"NX c #D8F4F4",
"BX c #B8E8E8",
"VX c #9CDCDC",
"CX c #74C8C8",
"ZX c #48C0C0",
"AX c #20B4B4",
"SX c #20B0B0",
"DX c #00A4A4",
"FX c #009898",
"GX c #008C8C",
"HX c #008484",
"JX c #007C7C",
"KX c #007878",
"LX c #007474",
"PX c #007070",
"IX c #006C6C",
"UX c #980088",
/* pixels */
"w q nXq q q nX$ vXq q nXmXnXcXcXcXcXw L.q q mXmXq mXmXnXnXmXq q q q q $ $ nXq q q nXq mXq mXcX@X+X+Xq mXL.mXmXmXmXmXnXnXmXq mXnX",
"mXnXq nXq q nXnXq nXvXnXq q @X@X@XcXL.nXq q q q nXnXmXnXq q q mXnXvXnXnXnXnXvXnXnXnXq nXq L.+XcXcXcXL.q mXmXq mXmXq q nXq q mXq ",
"mXnXq mXmXq nXnXvXvXvXvXq q @X@X@XcXL.q q q q q vXvXmXnXmXq q mXnXq mXq nXq vXnXq nXq q mXe @XcXcXcXL.mXmXmXq nXnXq mXvXq nXq L.",
"mXq nXnXnXnXq q nXq q nXmXq cXcXcXcXw L.mXmXmXmXq q mXmXmXmXq q q mXmXnXvXq q q q vXq mXmXmX@X@XcX@Xw mXq q mXmXq q mXmXq q L.L.",
"mXw nXq q q nX$ vXq q nXmXnXcXcXcXcXw L.q q mXmXq mXmXe L.mXq q q q q $ $ nXq q q nXq mXq mXcX@X+X+Xq mXL.mXmXmXmXmXmXL.mXq mXmX",
"mXw mXq vXnXq nXnXq q q mXq cXcXcX  e mXq q mXq nXnXq e L.nXq q q q q vXvXnXq nXnXq mXL.q mXcX@X+XdXq mXL.L.q nXmXmXmXL.L.mXq mX",
"w mXmXnXvXnXmXmXnXq L.mXe L.dXdXdXcXcXmXq q mXq q q mXL.q nXnXq mXnXmXq q mXmXq nXq mXL.mXmX+X@XcXcXq mXL.L.mXmXmXL.mXmXL.mXmXmX",
"mXmXq nXnXnXq nXvXq L.mXmXq OXOXOX@Xe mXnXq nXq q q q q nXq vXvXq nXq nXnXq q q mXL.mXq q mXoX@XcX@Xq nXmXmXnXq nXq q mXmXmXq mX",
"mXmXnXnXnXnXq nXvXmXL.mXq q +X+X+X@XL.mXq q q q q nXnXnXvXq nXq q mXq vXvXq q q q q nXnXnX@XoXdXcXcXL.q q q nXmXmXmXmXnXnXq mXq ",
"mXL.L.q q mXq q q mXL.mXnX@X@X@X@X@X+X@XnXvXnXnXnXnXvXnXq mXnXmXmXmXq nXnXnXq q nXnXq nXL.+XOXOXOX+XcXw q vXnXnXvXq nXvXnXnXmXq ",
"mXe e L.mXw nXq nXnXnXq @XdXcXcXcX@XOX+XmXq q q q mXmXq q q q q mXe L.mXmXnXnXnX$ vXL.w cX@X+XOXoXoX@XcXw nXnXvXnXnXq mXmXq mXmX",
"mXmXmXmXq q vXq nXvXnX@X@X@XcXcXcX@X@X@X@Xw mXnXnXq L.mXmXmXmXq q mXmXmXnXnXnXnXnXnXL.cXcX@X@X@X@X@XcXcXcXw nX$ q q mXmXmXq q mX",
"mXmXmXmXmXmXvXmXmXnXL.cXcXcXcX    cXcXcX@X@XmX$ 0 mXw w L.mXq q w mXw L.L.mXq q mXmX+XOX@XcXcXcX@X@XcXcXcXdXw 0 nXq mXmXmXq q mX",
"@X@XcXcXL.L.cXcXcXcXcXcXcXcXcXcXcXcXcXcX@X+XOXoXoX@XcXcXcX@X@X@XcXcXcXcX  @X@X  @X@X+XOXdXcXcX@X@X@XcX  cXdXOX@X@X@X@X@X@X+X+XOX",
"@X  cX  cXcX@X@X@X@XcXcXcXcXcX@XdX+X+X+X+X+XOXoXoXdXcX  cX@XdX+X+X@XcX  cXcXcXcXcXcX@X@X@X@XcX  cXcXcX@X@X@X@X@XcXcXcX@X@X@X@X@X",
"@XcXcXcX@X+XOXOXOX@XcXcX    @XOXoXoXoXoXOXOXOXOXOX+X@X@X@X@XdXOXoX+XcXcXcX+X+X@X    cXcXcXdX+X@XcXcX@XOX+X@XcXcXcXcXcXcXcXcXcX@X",
"@XcX  cX@XdX+X+X+X@XcXcX    cX+XOXOXoXoX+XdX+X+XOXdX@X@X@XdX+XOXOXdXcXcX@X+X+X@X  cX    cX@XdX@XcXcX@X+X@XcXcXcXcXcXcXcXcXcXcXcX",
"@XdX+X@XcXcXcXcXcXcXcXcXcXcXcXcX  @XOX+XL.w e w @XmXw mXmX@X@Xq q q q w q nXq w q w q w @XcXcX@XdX@X@XcX  cXcXcXcXcXcX@X@XcXcXcX",
"L.mX@Xw cXcXL.L.L.cXcXcXcXcX@X@X@XcX+X@XmXmXmXw nXmXq mXq q q mXmXq q mXmXnXnXq q q nXq mXcXcX@XOXOXcXcX@X@Xq L.L.L.mXmXL.L.L.w ",
"q mXL.mXmXq nXnXnXmXdX@XcX  cX@XcX@X+XnXvX0 nXnXvXnXq q q q q mXmXmXq mXmXnXvXnXq mXmXq q L.cX@XOXOX@XcX  @Xq q nXnXq L.L.mXmXmX",
"L.L.L.mXnXq q mXnXq +XOX@XcXcXcX  @XmXq vXvX0 q mXL.e L.q nXvXq mXmXvXnXL.L.q q mXmXnXnXq mX@X+XOXOXOX+X@Xq mXq q q q mXmXq mXmX",
"w L.L.mXq q nXq q q q dX@X@XcX  cXmXL.q vXnXnXnXq L.L.q q mXnXnXq nXnXq mXw q nXmXmXnXnXnXq q +XOXoXOX@Xw mXq nXnXnXmXmXq q mXL.",
"e L.mXmXmXnXq nXnXnXq q @X@X@XcXe L.q q q q nXnXq mXmXq q mXnXq q vXnXq mXq nX0 nXq nXvXnXnXq +XoXoX@XcXe nXvXvXq q L.L.mXmXmXL.",
"q q q mXq nXmXnXq q q nXmX@X@XcXe e q nXnXq q q q nXq mXq q nXq q nXnXnXnXnXq nXnXnXvXvXnXnXmX+XoXoXL.e L.q nXvXmXq L.L.q mXmXmX",
"q q vX0 q vXnXnXq mXq vXq @X@XcXe L.nXnXnXq q q q nXmXmXq q nXnXnXnXnXnX0 nXq vXnXnXnXvXvXnXnXdXOXOXmXmXmXq nXnXmXq q mXq q q mX",
"mXq q q nXvXvXq nXq q q mXL.@X@XL.q q q nXmXnX0 nXnXq mXnXq q nXq q q 0 0 $ $ vXq q vXnXnXnXnXcXcXcXw mXmXq q q q q q mXL.mXq mX",
"w mXmXq nXnXnXmXq nXq q mXcXcX@Xw q q nX0 nXq q q q nXq nXmXL.q q nXq vXvXvXnXnXnXmXq q q nXq L.@X@XmXmXL.mXq nXq q q q L.mXmXq ",
"mXmXnXq vX$ 0 nXnXnXq q q cXcXcXe q q q q nXq q nXq nXnXvXq mXmXnXvXnXq nX$ vXnXnXq q nX0 nXnXcXcXcXq nXq mXmXq mXL.nXnXq q nXnX",
"q q vXq nXnXnXvXq mXL.mXq @XcXcXe q mXmXq q mXq vXnXnXvXvXnXq mXq 0 vXnXnXnXq nX0 nXnXnXmXq nX@X@X@XL.q q q mXmXmXL.nXnXq q nXq ",
"q nXvXq nXvXq nXnXmXmXq nX@XcXcXw nXq q q q L.q vXvXnXvXnXvXnXnXvXnXq q q q nXnXnXq mXq mXq q @XdX@Xw q q q q mXmXmXvXnXq q q q ",
"nXq nXmXq nXmXq mXL.mXmXnXL.cX@Xw q q mXmXmXL.q q q mXmXq q nXvXnXq q q nXnXnXq q mXL.L.q nXq @XcXcXL.q q nXq mXL.mXq q q q nXq ",
"nXnXnXq q q mXq mXq q nXq cX@X@XL.mXq q q nXq q mXmXq q q q nXnXvXnXnXnXnXq nXmXnXq mXq q nXmX@XcXcXw mXmXnXnXq q nXq mXq q mXq ",
"q nXvXvXq q q mXq mXmXvXnXL.cX@XL.nXq q nXnXq nXmXmXmXmXmXmXq nX$ $ $ vXnXq vXq 0 q mXmXq nXmX@XcXcXw q mXmXq nXnXnXmXL.mXmXL.mX",
"q nXnXvXq nXvXnXnXvXnXnXmXL.  cXw q q q nXq q nXq vXvXq mXmXmXnXvXnXq q nXnXmXq vXvXnXvXnXnXq @XcXcXe nXmXL.q nXq q q q L.mXq q ",
"q nXnXq q vXvXnXnXvXvXq mX@XcXcXmXnXnXq q q nXnXq nXvXnXmXq mXq nXnXnXq nXvXq q nXnXq vXnXnXq L.@X@XmXnXq mXnXnXq q nXq L.mXq mX",
"mXq q nXvXnXnXvXvX$ vXnXq @X@XcXcXq nXq q nXnXnXnXnXnXvXnXnXq q vXnXq q vXnXnXvXvXvXnXvXq q q @XdXdXmXmXmXq nXq q mXmXq mXmXmXmX",
"mXnXq nXnXq nXnXnXnXnXq nXdX+XdXL.q nXq q q q q nXnXq nXq q mXL.mXnXq mXvXnXvXnXnXnXnXvX0 q nX@X+X+Xw mXmXmXq q mXmXq q mXmXL.mX",
"q q mXq nXnXnXq q q mXL.nX+XOXOXmXmXq L.nX0 q mXq q L.mXq q mXq q nXq w q vXvXnXvXnXmXvXvXnXnX@X+X+XmXq mXL.L.nXmXmXnXq q q q mX",
"L.mXmXmXq q mXq q mXmXmXmXdX+X@XmXmXmXe mXnXq mXq q mXmXq mXmXq 0 nXq mXnXnXq q nXnXmXq q q mXL.@X@Xq q L.e mXq mXmXmXmXmXq q mX",
"mXnXnXq mXq q q mXL.mXq mXdX@XcXL.q q L.L.q q q vXq mXnXnXq mXq nXnXnXnXnXq q q mXq q q mXmXnXcX  cX@Xq mXL.q q q mXq mXq q q mX",
"mXmXnXq mXq nXq q mXmXq mX+X@XcXL.nXnXL.mXq q q nXmXmXmXnXq L.q q q q q q q q nXmXmXq q mXL.q   cXcXmXmXq q nXnXq mXnXq vXnXnXmX",
"q mXmXmXmXq q q nXq q mX@XOX@X  L.nXnXq nXnXnXq nXq q mXnXnXq q nXvXnXq nXmXnX0 nXq mXmXq q q cXcXcXcXL.q nXvXvXnXnXvXq nXq q mX",
"e L.L.q q vXnXnXvXnXq q OXOX@XcXcXq nXq vX0 vXnXnXq nXnXnXnXq nXnXmXL.w nXq nXnXnXq mXq mXmXq cXcXcXcX@Xq vXvXvXvXvXmXmXmXmXmXmX",
"L.L.mXmXq nXnXvXnXq mXdXOXOX@XcX  e q vX$ vXvXvXnXnXnX0 nXnXmXL.q mXL.L.mXL.q q q q q nXnXnXw cXcXcXcX@XcXq vX$ $ vXmXmXe L.mXmX",
"mXmXq mXmXmXq nXq w +XOXOX+X@XcXcXcXL.vX$ vXnXnXq nXmXq q q mXL.L.e e L.q w q q q q q nXq mX+X@XcX  cX@X@XcXq vX$ q mXL.L.mXmXmX",
"cXOX+XdX+X+XdX@XdXOXoXOX+X+XcXcXcXcX+X@XvX$ nXmXL.mXL.L.mXq mXq q mXmXL.mXL.vXvXvXvXq q q OXoX@X  cX@X+X+XcXcXe L.w w mXq L.e cX",
"@X+XOX+XdXdX+X+X+X+XdX@X@X@X@XcXcX@X@X@X@X0 vXq q q q mXL.q mXmXL.L.mXmXL.mXvXvXnXvXq @X+XOXOX@X    @XOX+XcXcX  cXcX@X@X@X@XcXcX",
"dX+X+X@XcXcXdXOXOXcXcX    cX@XOXOX@XcX    cXcXcXcXcXcXcXcXL.cX@XOX@XcXcXcX@X@XcXcXcX+XoXOXdX@X@XcXcXdXOXOXcXcXcX@X@X@XcXcX@X+X+X",
"@XdX@XcX    @XoXOXcX@XcXcX  @XOXOX@X  cXcXcXcXcXcXcXcXcX@X@XcX@XOX@XcX@XcXcX@XcXcXcX+XoXOX@X@X@XcXcXdXOX+XcXcXcX@X+X@XcXcX@XOXOX",
"cXcXe e L.cXmXq dX  @XcXcX@X@X@X@XcXcX  cX@X  @X+X@XcX  cX@XcX@XOX@X  cXcX    cXcX@XOXoXOX+X+X@X  cXcX@X@XcXcXcX@XdX@X@X@XdX+X+X",
"q q q q nXnXnXnXnX@X@XcX@X+X@XcXcX  cXcXcX@XcX@X@XnXmXw L.L.e mXq mXw L.L.w mXw mXnX+XOXoXoXOX@XcX@X@XcXcXcX@XL.w nXq mXL.q q q ",
"q q q q q mXnXnXnXmX@XcX@XdXcX@X@X  cXcXcXcXmXmXmXq vXnXq nXnXq q q mXq nXq nXmXq nXq OXOXOXOX@XcX@X@X@XcX@Xw q mXq q nXq q mXmX",
"mXnXnXmXq q q mXq q q L.    cXcXcXcX@X@XcXw mXnXmXq mXq q mXq L.mXq q mXq q nXmXq mXq q @XcXcX  cXcX    cXL.mXq q mXmXnXq mXmXmX",
"L.mXq mXq nXnXnXnXq q w w @X@XcXcXcXdX@Xq q nXvXnXnXmXq mXmXL.e L.mXL.mXq vXnXq q q vXq L.cX@XcXcXcXcXcXe q nXnXnXq L.q q mXmXmX",
"mXmXmXL.L.q nXvXq mXq mXw mX@XcX  cX@Xq mXmXvX$ vXq q mXmXmXmXe L.mXL.L.mXnXq nXnXmXmXmXL.cXcXcX    cXL.mXvX$ vXvXq L.mXL.mXq q ",
"q mXq q mXq q nXnXq q vXnXmX  @X@X@XmXL.mXnXvXvXq q q q q q mXmXq mXmXmXq q q nXvXq mXq L.L.cX  @XcXw L.q nXvXnXnXq mXmXnXq mXq ",
"q q nXq q nXnXq nXnXmXnXnXmXcX@X@XcXL.mXnXvXq nXmXq nXnXvXvXmXmXmXmXq vXvXnXnXnXvXvXq nXq w @X  @X@Xw mXnXq nXnXq q mXq vXvXq q ",
"mXq 0 vXnXvXvXq nXnXq mXq q cXcXcXcXL.q nXvXq mXmXq q L.q vXq q nXq q vXvXnXvXvXvXvXnXq nXmX@XcXcXcXw nXq q nXq mXmXmXq q q q q ",
"q vXvX$ vXvX$ q q vXnXmXq mX@X@X@XcXmXmXL.q mXmXq mXq q q mXmXmXnXnXq q q q vXq nXvXnXL.mXL.@X@X@X@Xq vXL.L.L.L.mXq mXq L.mXq q ",
"mXq nX$ $ $ vXq mXvXmXq q L.@X@X@XL.q q mXL.L.mXq q vXvXvXmXL.L.q q mXq nX0 nXnXvXnXmXL.mXq cX@X@X@XL.$ nXmXL.e mXq mXq q q L.mX",
"nXq q vXnXq q nXnXvXq nXq q cXcXcXcXmXq nXmXL.q nXq nXnXq mXL.mXvXvXnXq mXnXnXnXnXnXmXmXq nXcXcXdXdXL.vXnXnXnXmXnXq q q q mXL.q ",
"nXnXq nXq nXq q q nXnXq q q @XOXOXdXmXnXnXq mXmXq q q q nXnXnXnX$ nXmXq nXnXq q q q mXL.mXw @XcX+X+XL.q mXnXq mXnXnXvXvXnXq q q ",
"q mXnXnXnX$ q mXq nXnXq q q +XOXoX+Xw q q mXmXmXq q q q nXnXnXq vXq mXq vXvXq mXq q mXL.q L.cXcX@X@Xq q q q q mXmXmXnXnXq q nXq ",
"nXnXq nXq nXq q q nXnXq q mXOXOXOXdXmXnXnXq mXmXq q q q nXnXq q q nXmXq nXnXq q q q mXL.mXw @XcX+X+Xq q mXnXq mXnXnXvXvXnXq q q "
};
