/* XPM */
static char *dba10eebe47a4e238829a9e33f3a0b2a[] = {
/* columns rows colors chars-per-pixel */
"64 64 256 2 ",
"   c black",
".  c #0000A8",
"X  c #00A800",
"o  c #00A8A8",
"O  c #A80000",
"+  c #A800A8",
"@  c #A85400",
"#  c gray66",
"$  c gray33",
"%  c #5454FC",
"&  c #54FC54",
"*  c #54FCFC",
"=  c #FC5454",
"-  c #FC54FC",
";  c #FCFC54",
":  c gray99",
">  c #ECECEC",
",  c gainsboro",
"<  c #D0D0D0",
"1  c #C0C0C0",
"2  c #B4B4B4",
"3  c gray66",
"4  c #989898",
"5  c gray55",
"6  c #7C7C7C",
"7  c gray44",
"8  c #646464",
"9  c gray33",
"0  c #484848",
"q  c gray22",
"w  c #2C2C2C",
"e  c #202020",
"r  c #FC0000",
"t  c #EC0000",
"y  c #E00000",
"u  c #D40000",
"i  c #C80000",
"p  c #BC0000",
"a  c #B00000",
"s  c #A40000",
"d  c #980000",
"f  c #880000",
"g  c #7C0000",
"h  c #700000",
"j  c #640000",
"k  c #580000",
"l  c #4C0000",
"z  c #400000",
"x  c #FCD8D8",
"c  c #FCB8B8",
"v  c #FC9C9C",
"b  c #FC7C7C",
"n  c #FC5C5C",
"m  c #FC4040",
"M  c #FC2020",
"N  c #FC0000",
"B  c #FCA85C",
"V  c #FC9840",
"C  c #FC8820",
"Z  c #FC7800",
"A  c #E46C00",
"S  c #CC6000",
"D  c #B45400",
"F  c #9C4C00",
"G  c #FCFCD8",
"H  c #FCFCB8",
"J  c #FCFC9C",
"K  c #FCFC7C",
"L  c #FCF85C",
"P  c #FCF440",
"I  c #FCF420",
"U  c #FCF400",
"Y  c #E4D800",
"T  c #CCC400",
"R  c #B4AC00",
"E  c #9C9C00",
"W  c #848400",
"Q  c #706C00",
"!  c #585400",
"~  c #404000",
"^  c #D0FC5C",
"/  c #C4FC40",
"(  c #B4FC20",
")  c #A0FC00",
"_  c #90E400",
"`  c #80CC00",
"'  c #74B400",
"]  c #609C00",
"[  c #D8FCD8",
"{  c #BCFCB8",
"}  c #9CFC9C",
"|  c #80FC7C",
" . c #60FC5C",
".. c #40FC40",
"X. c #20FC20",
"o. c #00FC00",
"O. c #00FC00",
"+. c #00EC00",
"@. c #00E000",
"#. c #00D400",
"$. c #04C800",
"%. c #04BC00",
"&. c #04B000",
"*. c #04A400",
"=. c #049800",
"-. c #048800",
";. c #047C00",
":. c #047000",
">. c #046400",
",. c #045800",
"<. c #044C00",
"1. c #044000",
"2. c #D8FCFC",
"3. c #B8FCFC",
"4. c #9CFCFC",
"5. c #7CFCF8",
"6. c #5CFCFC",
"7. c #40FCFC",
"8. c #20FCFC",
"9. c #00FCFC",
"0. c #00E4E4",
"q. c #00CCCC",
"w. c #00B4B4",
"e. c #009C9C",
"r. c #008484",
"t. c #007070",
"y. c #005858",
"u. c #004040",
"i. c #5CBCFC",
"p. c #40B0FC",
"a. c #20A8FC",
"s. c #009CFC",
"d. c #008CE4",
"f. c #007CCC",
"g. c #006CB4",
"h. c #005C9C",
"j. c #D8D8FC",
"k. c #B8BCFC",
"l. c #9C9CFC",
"z. c #7C80FC",
"x. c #5C60FC",
"c. c #4040FC",
"v. c #2024FC",
"b. c #0004FC",
"n. c #0000FC",
"m. c #0000EC",
"M. c #0000E0",
"N. c #0000D4",
"B. c #0000C8",
"V. c #0000BC",
"C. c #0000B0",
"Z. c #0000A4",
"A. c #000098",
"S. c #000088",
"D. c #00007C",
"F. c #000070",
"G. c #000064",
"H. c #000058",
"J. c #00004C",
"K. c #000040",
"L. c #282828",
"P. c #FCE034",
"I. c #FCD424",
"U. c #FCCC18",
"Y. c #FCC008",
"T. c #FCB400",
"R. c #B420FC",
"E. c #A800FC",
"W. c #9800E4",
"Q. c #8000CC",
"!. c #7400B4",
"~. c #60009C",
"^. c #500084",
"/. c #440070",
"(. c #340058",
"). c #280040",
"_. c #FCD8FC",
"`. c #FCB8FC",
"'. c #FC9CFC",
"]. c #FC7CFC",
"[. c #FC5CFC",
"{. c #FC40FC",
"}. c #FC20FC",
"|. c #FC00FC",
" X c #E000E4",
".X c #C800CC",
"XX c #B400B4",
"oX c #9C009C",
"OX c #840084",
"+X c #6C0070",
"@X c #580058",
"#X c #400040",
"$X c #FCE8DC",
"%X c #FCE0D0",
"&X c #FCD8C4",
"*X c #FCD4BC",
"=X c #FCCCB0",
"-X c #FCC4A4",
";X c #FCBC9C",
":X c #FCB890",
">X c #FCB080",
",X c #FCA470",
"<X c #FC9C60",
"1X c #F0945C",
"2X c #E88C58",
"3X c #DC8854",
"4X c #D08050",
"5X c #C87C4C",
"6X c #BC7848",
"7X c #B47044",
"8X c #A86840",
"9X c #A0643C",
"0X c #9C6038",
"qX c #905C34",
"wX c #885830",
"eX c #80502C",
"rX c #744C28",
"tX c #6C4824",
"yX c #5C4020",
"uX c #543C1C",
"iX c #483818",
"pX c #403018",
"aX c #382C14",
"sX c #28200C",
"dX c #600064",
"fX c #006464",
"gX c #006060",
"hX c #00001C",
"jX c #00002C",
"kX c #302410",
"lX c #480048",
"zX c #500050",
"xX c #000034",
"cX c gray11",
"vX c #4C4C4C",
"bX c gray36",
"nX c gray25",
"mX c gray19",
"MX c #343434",
"NX c #D8F4F4",
"BX c #B8E8E8",
"VX c #9CDCDC",
"CX c #74C8C8",
"ZX c #48C0C0",
"AX c #20B4B4",
"SX c #20B0B0",
"DX c #00A4A4",
"FX c #009898",
"GX c #008C8C",
"HX c #008484",
"JX c #007C7C",
"KX c #007878",
"LX c #007474",
"PX c #007070",
"IX c #006C6C",
"UX c #980088",
/* pixels */
"8 nXbX8 8 8 8 8 8 $ vX$ $ bX8 8 bXbX8 8 0 8 0 8 8 8 8 8 8 8 8 0 8 nXbX8 8 8 8 8 8 $ vX$ $ bX8 8 bXbX8 8 0 8 0 8 8 8 8 8 8 8 8 0 ",
"$ 7 vX$ $ $ $ $ $ 0 MXq q vX$ $ $ vX$ $ 7 $ 7 vX$ $ $ $ bX$ vX7 $ 7 vX$ $ $ $ $ $ 0 MXq q vX$ $ $ vX$ $ 7 $ 7 vX$ $ $ $ bX$ vX7 ",
"cX                      cX  cX        cX  cX    cXcX            cX                      cX  cX        cX  cX    cXcX            ",
"e cXcXcXcXcXcXcXL.e e cXcXL.e e e cXL.e L.L.cXL.e e L.e e e e e e cXcXcXcXcXcXcXL.e e cXcXL.e e e cXL.e L.L.cXL.e e L.e e e e e ",
"w e w MXw w w w w w MXMXw MXMXMXq MXMXw q MXmXw q q MXq q w w w w e w MXw w w w w w MXMXw MXMXMXq MXMXw q MXmXw q q MXq q w w w ",
"MXMXw w w w w q MXMXq q q q w MXMXnXMXMXMXnXq nXnXq q w w w MXMXMXMXw w w w w q MXMXq q q q w MXMXnXMXMXMXnXq nXnXq q w w w MXMX",
"w w MXq w MXw q w MXq q MXw w MXMXw w q q MXMX0 q w w MXMXMXq MXw w MXq w MXw q w MXq q MXw w MXMXw w q q MXMX0 q w w MXMXMXq MX",
"nXvXnXnXq nXq nXnXL.e w L.0 nXnXq nXq q bX0 $ 0 q nXnXMXnXq q $ nXvXnXnXq nXq nXnXL.e w L.0 nXnXq nXq q bX0 $ 0 q nXnXMXnXq q $ ",
"                                                                                                                                ",
"cXcXL.L.L.L.w 0   e L.cXL.L.nX0 cXe nXmXL.mXw L.cXcXcXcXnX0 w $   L.q 0 q e nXnX  cXL.mXL.L.nX0 cXcXL.L.L.L.w 0   e L.cXL.L.nX0 ",
"L.mX0 $ 0 $ 0 $ cXL.0 q 0 $ 0 7 w q $ $ 0 0 $ bXe q bX$ 0 $ 0 7 cXq 0 $ $ nX$ 7 cXq q $ $ q $ 8 L.mX0 $ 0 $ 0 $ cXL.0 q 0 $ 0 7 ",
"L.nX$ $ 0 $ 0 $ L.e $ 0 q $ 0 7 cXmX$ $ $ 0 $ bXcXw 0 0 0 $ 0 7 cXq 0 nX8 $ $ 7 cX0 0 $ $ 0 $ $ L.nX$ $ 0 $ 0 $ L.e $ 0 q $ 0 7 ",
"cXnX0 $ 0 $ 0 8 cXL.$ 0 q $ 0 8 cXmX$ $ $ 0 bX7 e q $ 0 0 $ 0 7 cXq 0 $ 8 $ 0 6 cXq 0 0 0 $ bX8 cXnX0 $ 0 $ 0 8 cXL.$ 0 q $ 0 8 ",
"w mX$ $ 0 $ 0 8 cXmX$ $ 0 0 8 8 cXL.bX0 $ 0 $ 7 w q $ q $ $ 0 7 cXq $ $ $ $ $ 6   q $ q 0 $ $ 8 w mX$ $ 0 $ 0 8 cXmX$ $ 0 0 8 8 ",
"w nX0 $ 0 $ nX8 e w q $ 0 q 0 8 cXcXbX$ $ 0 $ 7 e w $ $ 0 $ bX7 cXq $ $ $ $ $ 7 cXq 0 w 0 $ 0 8 w nX0 $ 0 $ nX8 e w q $ 0 q 0 8 ",
"w mX0 0 0 0 0 $ e e 0 0 0 0 $ 8 cXnX$ 0 $ 0 0 7 cXw $ $ $ 0 $ 7 cX0 $ $ $ $ bX7 cXq 0 q 0 0 0 7 w mX0 0 0 0 0 $ e e 0 0 0 0 $ 8 ",
"w L.0 0 0 0 $ $ e L.0 q 0 0 $ 8 cXmX$ $ $ $ $ 7   w $ $ 0 0 $ bXcXw 0 7 $ $ $ 7 cXq q q 0 0 $ 7 w L.0 0 0 0 $ $ e L.0 q 0 0 $ 8 ",
"L.mX0 0 0 0 $ $ L.w 0 0 q 0 $ 8 e nX$ $ bX0 0 bXcXe 0 bX$ $ bXbXmXq $ 7 $ $ $ 7 cX0 0 0 q $ bX7 L.mX0 0 0 0 $ $ L.w 0 0 q 0 $ 8 ",
"L.mX$ 0 0 0 0 $ L.0 $ 0 q $ bX7 cXnX$ $ $ $ 0 7   q q $ 0 $ bXbXL.q $ $ 7 $ bXbXcX0 q $ q 0 $ 8 L.mX$ 0 0 0 0 $ L.0 $ 0 q $ bX7 ",
"cXw $ 0 0 $ 0 $ w 0 $ 0 q $ bX8 cXnX$ $ $ 0 $ 7 cXq w $ 0 0 $ 8 L.q $ nX$ $ $ 6 cXq $ $ $ q $ 8 cXw $ 0 0 $ 0 $ w 0 $ 0 q $ bX8 ",
"cXmX$ 0 0 $ 0 7 e 0 0 0 w 0 $ 7 cXmX0 $ $ 0 $ bXcXq q 0 0 $ 0 7 cXq $ nX$ $ 0 7 cXq $ $ $ 0 0 8 cXmX$ 0 0 $ 0 7 e 0 0 0 w 0 $ 7 ",
"cXmX$ 0 0 $ 0 8 cXq $ $ 0 $ bX7 L.mXbX0 0 0 bXbXcXmXq $ 0 $ $ 6 L.q $ 0 nX0 0 6 cX0 $ $ $ $ $ $ cXmX$ 0 0 $ 0 8 cXq $ $ 0 $ bX7 ",
"cXw $ 0 0 $ 0 $   q 0 $ 0 bX0 7 cXmX$ q 0 nX8 7 cXe 0 0 0 $ bX5 cXq $ 0 mX0 0 6 cXq $ w $ $ $ $ cXw $ 0 0 $ 0 $   q 0 $ 0 bX0 7 ",
"cXL.0 0 0 $ 0 $   q $ $ 0 bX$ 8 cXmX0 q 0 0 8 7 cXe 0 0 0 $ 7 6 cXq 7 nXmX0 0 6   q $ 0 0 0 0 8 cXL.0 0 0 $ 0 $   q $ $ 0 bX$ 8 ",
"cXw 0 0 0 $ $ $ cXq $ $ 0 bX$ $ cXmXbX0 $ 0 bXbXcXe 0 $ $ $ 7 7 cXq 7 $ nX0 $ 6 cXw 0 q $ 0 $ 7 cXw 0 0 0 $ $ $ cXq $ $ 0 bX$ $ ",
"cXmX0 $ 0 $ $ 8 cXq $ $ 0 0 $ $ L.nXbX0 $ $ bXbXL.e 0 0 $ $ 7 6 cXq 7 $ mX$ $ 6 cX0 q 0 q q bX7 cXmX0 $ 0 $ $ 8 cXq $ $ 0 0 $ $ ",
"L.mX0 $ 0 0 $ 8 e q 0 $ q w bX$ cXL.$ 0 0 $ $ $ mXe q 0 $ bXnX6 L.0 7 0 mX0 bX6 cX0 $ 0 q 0 $ 8 L.mX0 $ 0 0 $ 8 e q 0 $ q w bX$ ",
"L.q 0 $ 0 0 0 8 w 0 0 0 q q bXbXw mXbX0 0 q bXbXw mXq $ $ bXnX6 cX0 7 $ mX0 bX7 cX0 0 bX0 q bX0 L.q 0 $ 0 0 0 8 w 0 0 0 q q bXbX",
"cXw q 0 q q nX$ cXq w q e e 0 $ e L.bX0 0 q $ bX  w w 0 0 0 nX6 cXq bXnXw 0 $ $ cXmX0 0 0 q 0 7 cXw q 0 q q nX$ cXq w q e e 0 $ ",
"q q $ $ $ $ $ $ bXq nXnXq $ $ vX$ $ $ $ 7 vX6 $ $ $ $ $ $ vXMXq q q $ $ $ $ $ $ bXq nXnXq $ $ vX$ $ $ $ 7 vX6 $ $ $ $ $ $ vXMXq ",
"cX          cXcXcX    cXcX            cX                    cXcXcX          cXcXcX    cXcX            cX                    cXcX",
"e e w e e L.e L.L.L.L.e L.L.e e e e e e e cXe e e cXcXcXcXcXcXe e e w e e L.e L.L.L.L.e L.L.e e e e e e e cXe e e cXcXcXcXcXcXe ",
"MXw MXq q MXMXq MXMXq MXMXMXw q MXMXw w q MXMXw MXw w w w MXw w MXw MXq q MXMXq MXMXq MXMXMXw q MXMXw w q MXMXw MXw w w w MXw w ",
"q w w w MXMXmXq 0 q nXq w MXMXq MXw MXq q q MXMXMXq w w w w w q q w w w MXMXmXq 0 q nXq w MXMXq MXw MXq q q MXMXMXq w w w w w q ",
"q MXq w MXw w MXnXq MXq q MXw MXq MXw MXMXnXMXw q MXMXMXMXq w w q MXq w MXw w MXnXq MXq q MXw MXq MXw MXMXnXMXw q MXMXMXMXq w w ",
"cXL.q q nXq nXnXq L.w L.L.nXnXq nXnX0 nX$ q vXq q nXq q nXnXcXcXcXL.q q nXq nXnXq L.w L.L.nXnXq nXnX0 nX$ q vXq q nXq q nXnXcXcX",
"                                                                                                                                ",
"  cXq mXL.L.cXq   cXL.L.cXcXw 0   cXcXnXmXmXe L.  cXcXmXL.L.q 0 cXcXq cXq q mXnX  L.L.cXL.w nX0 cXcXq L.L.L.w q   cXmXq q mXw q ",
"cXw 0 0 nX0 w $ e mXmXL.nXnX0 bX  q 0 nXmXnX$ $   mXmXnXnXnXbX8 L.L.0 mX$ 0 8 8 cXnXq q 0 0 $ bXL.w nXnXnX0 0 bXcXmXnX$ 8 nX0 0 ",
"e mX$ 0 bX$ mX$ w q 0 0 q 0 0 8 L.mX$ $ 7 $ $ 8   w 0 0 0 0 8 7 w nX$ nX$ 0 bX7 cXq w 0 $ 0 $ 7 w nX0 0 q $ $ $ cX0 0 $ bXq $ $ ",
"e mX0 0 7 $ mX8 L.q 0 q $ 0 0 8 cX0 bX$ $ 0 bX7   e 0 $ 0 7 bX6 cX0 $ nX$ $ bX7 cXq 0 $ 0 0 8 7 w mX0 0 q $ 0 $   0 0 0 0 q 8 bX",
"e mX0 0 7 0 mX8 cX0 $ 0 0 0 0 8 mXmX$ q $ 0 bX7 cXe 0 0 $ $ bX6 cX0 0 0 0 $ 0 6 cXnX$ $ 0 $ $ 7 w mX0 0 0 0 0 8 cXnX0 q 0 0 bX8 ",
"e mX0 0 7 $ nX8 cX0 0 $ q 0 0 8 w nXbX0 0 $ bX7 e $ q w $ $ bX6 cX0 0 $ 0 $ $ 6 cXnX$ 0 nX$ 0 7 L.mX0 $ 0 $ 0 $ cXL.0 q 0 $ 0 7 ",
"cXmX0 $ bX0 0 $ cXq 0 $ 0 w 0 $ cXmX$ q $ $ 8 8   q q $ $ $ 8 7 cX0 0 0 0 $ $ bXcXq $ q 0 $ $ 7 L.nX$ $ 0 $ 0 $ L.e $ 0 q $ 0 7 ",
"L.mX$ $ $ nX$ $ cX0 w $ $ 0 $ 8 L.mX$ 0 $ $ 6 $ q q L.$ $ $ 7 6 L.q 0 0 0 $ 0 7 L.q 0 q 0 0 0 7 cXnX0 $ 0 $ 0 8 cXL.$ 0 q $ 0 8 ",
"L.q $ $ $ q $ $ cXq q $ 0 0 $ 8 cXL.$ 0 $ 0 7 0 L.q 0 0 $ $ 0 5 mXmX$ 0 0 $ $ bXL.0 0 q q 0 bX7 w mX$ $ 0 $ 0 8 cXmX$ $ 0 0 8 8 ",
"w q 0 $ $ nX0 $ w bX$ 0 q w $ 8 L.mX0 q $ $ $ 0 e w q $ $ 0 bX6 mXq nXnX0 $ bX7 L.0 q 0 $ q bX7 w nX0 $ 0 $ nX8 e w q $ 0 q 0 8 ",
"w q $ 0 $ 0 0 $ cX0 0 bX$ $ 8 $ cXmX0 q $ $ nX0 e bXq $ 0 $ 7 6 cXw 0 nXnX$ $ 6 cXq q $ bXq $ bXw mX0 0 0 0 0 $ e e 0 0 0 0 $ 8 ",
"w mX7 q $ 0 $ 7 cX0 0 0 0 $ 0 8 L.0 $ $ $ 0 0 0 e 0 0 q $ $ 8 6 nX$ $ 0 $ $ 0 7 cX0 0 $ 8 $ $ $ w L.0 0 0 0 $ $ e L.0 q 0 0 $ 8 ",
"L.mXbXmX$ 0 0 8   q $ 0 q 0 mX8 cX0 bX0 0 $ $ $ e q 0 $ $ $ bX7 L.$ 8 0 $ nX0 6 cXq $ $ bX$ 0 $ L.mX0 0 0 0 $ $ L.w 0 0 q 0 $ 8 ",
"L.L.8 w $ 0 0 8 cXw $ 0 0 $ nX$ mX0 0 0 q 8 $ $ cXq 0 $ $ $ bX7 L.0 $ 0 nX0 0 6 cXq bX$ $ $ 0 8 L.mX$ 0 0 0 0 $ L.0 $ 0 q $ bX7 ",
"e L.bXnX$ 0 0 $ cXe $ 0 $ 0 0 8 mXnX$ 0 q 7 $ $ e cX$ 0 0 $ $ 7 L.0 $ 0 $ $ 0 6   mX$ $ $ $ $ 7 cXw $ 0 0 $ 0 $ w 0 $ 0 q $ bX8 ",
"cXmX0 q 0 0 $ $ cXe 0 $ 0 q 0 8 L.mX0 $ 0 7 0 0 cXq q 0 0 $ bX7 cX$ $ 0 $ 0 $ 6 cXq $ $ 0 bXbX7 cXmX$ 0 0 $ 0 7 e 0 0 0 w 0 $ 7 ",
"cXnX0 q 0 0 $ $ cXmX0 $ 0 0 $ 8 mXnX0 $ 0 7 0 nXq q q 0 0 $ $ 7 cX0 $ 0 $ 0 $ 5 cX0 $ 0 q $ $ 8 cXmX$ 0 0 $ 0 8 cXq $ $ 0 $ bX7 ",
"L.nX0 q 0 0 0 $ cXq nX$ 0 q 0 8 mXmXq $ $ $ $ nXe q w $ $ bX0 7 L.0 $ 0 0 0 bX6 cX0 bX0 0 $ $ 8 cXw $ 0 0 $ 0 $   q 0 $ 0 bX0 7 ",
"L.nXbXw mX$ 0 $ cXq mX0 $ q 0 8 w mXq bX$ 0 7 nXe q q $ q 0 bX7 cX0 0 nX0 0 $ 6 cXq $ 0 0 0 0 bXcXL.0 0 0 $ 0 $   q $ $ 0 bX$ 8 ",
"cXmX8 w q 0 nX0 cXw e $ q w nX0 e mXmX$ 0 q 7 0   w w 0 q 0 nX8 cXq nX0 0 nX0 7   e q 0 nXw nX$ cXe q q q 0 0 0   w 0 0 q $ 0 0 ",
"$ 7 vX$ $ $ $ $ $ 0 MXq q vX$ $ $ vX$ $ 7 $ 7 vX$ $ $ $ bX$ vX7 $ 7 vX$ $ $ $ $ $ 0 MXq q vX$ $ $ vX$ $ 7 $ 7 vX$ $ $ $ bX$ vX7 ",
"cX                      cX  cX        cX  cX    cXcX            cX                      cX  cX        cX  cX    cXcX            ",
"e cXcXcXcXcXcXcXL.e e cXcXL.e e e cXL.e L.L.cXL.e e L.e e e e e e cXcXcXcXcXcXcXL.e e cXcXL.e e e cXL.e L.L.cXL.e e L.e e e e e ",
"w e w MXw w w w w w MXMXw MXMXMXq MXMXw q MXmXw q q MXq q w w w w e w MXw w w w w w MXMXw MXMXMXq MXMXw q MXmXw q q MXq q w w w ",
"MXMXw w w w w q MXMXq q q q w MXMXnXMXMXMXnXq nXnXq q w w w MXMXMXMXw w w w w q MXMXq q q q w MXMXnXMXMXMXnXq nXnXq q w w w MXMX",
"w w MXq w MXw q w MXq q MXw w MXMXw w q q MXMX0 q w w MXMXMXq MXw w MXq w MXw q w MXq q MXw w MXMXw w q q MXMX0 q w w MXMXMXq MX",
"nXvXnXnXq nXq nXnXL.e w L.0 nXnXq nXq q bX0 $ 0 q nXnXMXnXq q $ nXvXnXnXq nXq nXnXL.e w L.0 nXnXq nXq q bX0 $ 0 q nXnXMXnXq q $ "
};
