/* XPM */
static char *ae5dbf372d274c14cfa384e665bf4dc2[] = {
/* columns rows colors chars-per-pixel */
"64 64 256 2 ",
"   c black",
".  c #0000A8",
"X  c #00A800",
"o  c #00A8A8",
"O  c #A80000",
"+  c #A800A8",
"@  c #A85400",
"#  c gray66",
"$  c gray33",
"%  c #5454FC",
"&  c #54FC54",
"*  c #54FCFC",
"=  c #FC5454",
"-  c #FC54FC",
";  c #FCFC54",
":  c gray99",
">  c #ECECEC",
",  c gainsboro",
"<  c #D0D0D0",
"1  c #C0C0C0",
"2  c #B4B4B4",
"3  c gray66",
"4  c #989898",
"5  c gray55",
"6  c #7C7C7C",
"7  c gray44",
"8  c #646464",
"9  c gray33",
"0  c #484848",
"q  c gray22",
"w  c #2C2C2C",
"e  c #202020",
"r  c #FC0000",
"t  c #EC0000",
"y  c #E00000",
"u  c #D40000",
"i  c #C80000",
"p  c #BC0000",
"a  c #B00000",
"s  c #A40000",
"d  c #980000",
"f  c #880000",
"g  c #7C0000",
"h  c #700000",
"j  c #640000",
"k  c #580000",
"l  c #4C0000",
"z  c #400000",
"x  c #FCD8D8",
"c  c #FCB8B8",
"v  c #FC9C9C",
"b  c #FC7C7C",
"n  c #FC5C5C",
"m  c #FC4040",
"M  c #FC2020",
"N  c #FC0000",
"B  c #FCA85C",
"V  c #FC9840",
"C  c #FC8820",
"Z  c #FC7800",
"A  c #E46C00",
"S  c #CC6000",
"D  c #B45400",
"F  c #9C4C00",
"G  c #FCFCD8",
"H  c #FCFCB8",
"J  c #FCFC9C",
"K  c #FCFC7C",
"L  c #FCF85C",
"P  c #FCF440",
"I  c #FCF420",
"U  c #FCF400",
"Y  c #E4D800",
"T  c #CCC400",
"R  c #B4AC00",
"E  c #9C9C00",
"W  c #848400",
"Q  c #706C00",
"!  c #585400",
"~  c #404000",
"^  c #D0FC5C",
"/  c #C4FC40",
"(  c #B4FC20",
")  c #A0FC00",
"_  c #90E400",
"`  c #80CC00",
"'  c #74B400",
"]  c #609C00",
"[  c #D8FCD8",
"{  c #BCFCB8",
"}  c #9CFC9C",
"|  c #80FC7C",
" . c #60FC5C",
".. c #40FC40",
"X. c #20FC20",
"o. c #00FC00",
"O. c #00FC00",
"+. c #00EC00",
"@. c #00E000",
"#. c #00D400",
"$. c #04C800",
"%. c #04BC00",
"&. c #04B000",
"*. c #04A400",
"=. c #049800",
"-. c #048800",
";. c #047C00",
":. c #047000",
">. c #046400",
",. c #045800",
"<. c #044C00",
"1. c #044000",
"2. c #D8FCFC",
"3. c #B8FCFC",
"4. c #9CFCFC",
"5. c #7CFCF8",
"6. c #5CFCFC",
"7. c #40FCFC",
"8. c #20FCFC",
"9. c #00FCFC",
"0. c #00E4E4",
"q. c #00CCCC",
"w. c #00B4B4",
"e. c #009C9C",
"r. c #008484",
"t. c #007070",
"y. c #005858",
"u. c #004040",
"i. c #5CBCFC",
"p. c #40B0FC",
"a. c #20A8FC",
"s. c #009CFC",
"d. c #008CE4",
"f. c #007CCC",
"g. c #006CB4",
"h. c #005C9C",
"j. c #D8D8FC",
"k. c #B8BCFC",
"l. c #9C9CFC",
"z. c #7C80FC",
"x. c #5C60FC",
"c. c #4040FC",
"v. c #2024FC",
"b. c #0004FC",
"n. c #0000FC",
"m. c #0000EC",
"M. c #0000E0",
"N. c #0000D4",
"B. c #0000C8",
"V. c #0000BC",
"C. c #0000B0",
"Z. c #0000A4",
"A. c #000098",
"S. c #000088",
"D. c #00007C",
"F. c #000070",
"G. c #000064",
"H. c #000058",
"J. c #00004C",
"K. c #000040",
"L. c #282828",
"P. c #FCE034",
"I. c #FCD424",
"U. c #FCCC18",
"Y. c #FCC008",
"T. c #FCB400",
"R. c #B420FC",
"E. c #A800FC",
"W. c #9800E4",
"Q. c #8000CC",
"!. c #7400B4",
"~. c #60009C",
"^. c #500084",
"/. c #440070",
"(. c #340058",
"). c #280040",
"_. c #FCD8FC",
"`. c #FCB8FC",
"'. c #FC9CFC",
"]. c #FC7CFC",
"[. c #FC5CFC",
"{. c #FC40FC",
"}. c #FC20FC",
"|. c #FC00FC",
" X c #E000E4",
".X c #C800CC",
"XX c #B400B4",
"oX c #9C009C",
"OX c #840084",
"+X c #6C0070",
"@X c #580058",
"#X c #400040",
"$X c #FCE8DC",
"%X c #FCE0D0",
"&X c #FCD8C4",
"*X c #FCD4BC",
"=X c #FCCCB0",
"-X c #FCC4A4",
";X c #FCBC9C",
":X c #FCB890",
">X c #FCB080",
",X c #FCA470",
"<X c #FC9C60",
"1X c #F0945C",
"2X c #E88C58",
"3X c #DC8854",
"4X c #D08050",
"5X c #C87C4C",
"6X c #BC7848",
"7X c #B47044",
"8X c #A86840",
"9X c #A0643C",
"0X c #9C6038",
"qX c #905C34",
"wX c #885830",
"eX c #80502C",
"rX c #744C28",
"tX c #6C4824",
"yX c #5C4020",
"uX c #543C1C",
"iX c #483818",
"pX c #403018",
"aX c #382C14",
"sX c #28200C",
"dX c #600064",
"fX c #006464",
"gX c #006060",
"hX c #00001C",
"jX c #00002C",
"kX c #302410",
"lX c #480048",
"zX c #500050",
"xX c #000034",
"cX c gray11",
"vX c #4C4C4C",
"bX c gray36",
"nX c gray25",
"mX c gray19",
"MX c #343434",
"NX c #D8F4F4",
"BX c #B8E8E8",
"VX c #9CDCDC",
"CX c #74C8C8",
"ZX c #48C0C0",
"AX c #20B4B4",
"SX c #20B0B0",
"DX c #00A4A4",
"FX c #009898",
"GX c #008C8C",
"HX c #008484",
"JX c #007C7C",
"KX c #007878",
"LX c #007474",
"PX c #007070",
"IX c #006C6C",
"UX c #980088",
/* pixels */
"bXMX$ bXbXbXbXbXbX0 nX0 0 $ bXbX$ $ bXbXnXbXnXbXbXbXbXbXbXbXbXnXbXMX$ bXbXbXbXbXbX0 nX0 0 $ bXbX$ $ bXbXnXbXnXbXbXbXbXbXbXbXbXnX",
"0 8 nX0 0 0 0 0 0 nXL.w w nX0 0 0 nX0 0 8 0 8 nX0 0 0 0 $ 0 nX8 0 8 nX0 0 0 0 0 0 nXL.w w nX0 0 0 nX0 0 8 0 8 nX0 0 0 0 $ 0 nX8 ",
"cX                      cX  cX        cX  cX    cXcX            cX                      cX  cX        cX  cX    cXcX            ",
"cXcXcXcXcXcXcXcXcXcXcXcXcXcXcXcXcXcXcXcXcXcXcXcXcXcXcXcXcXcXcXcXcXcXcXcXcXcXcXcXcXcXcXcXcXcXcXcXcXcXcXcXcXcXcXcXcXcXcXcXcXcXcXcX",
"e cXe L.e e e e e e L.L.e L.L.L.w L.L.e w L.L.e w w L.w w e e e e cXe L.e e e e e e L.L.e L.L.L.w L.L.e w L.L.e w w L.w w e e e ",
"L.L.e e e e e w L.L.w w w w e L.L.MXL.L.L.MXw MXMXw w e e e L.L.L.L.e e e e e w L.L.w w w w e L.L.MXL.L.L.MXw MXMXw w e e e L.L.",
"e e L.w e L.e w e L.w w L.e e L.L.e e w w L.L.nXw e e L.L.L.w L.e e L.w e L.e w e L.w w L.e e L.L.e e w w L.L.nXw e e L.L.L.w L.",
"MXnXMXMXw MXw MXMXcXcXe cXnXMXMXw MXw w $ nX0 nXw MXMXL.MXw w 0 MXnXMXMXw MXw MXMXcXcXe cXnXMXMXw MXw w $ nX0 nXw MXMXL.MXw w 0 ",
"                                                                                                                                ",
"cXcXcXcXcXcXe nX  cXcXcXcXcXMXnXcXcXMXL.cXL.e cXcXcXcXcXMXnXe 0   cXw nXw cXMXMX  cXcXL.cXcXMXnXcXcXcXcXcXcXe nX  cXcXcXcXcXMXnX",
"cXL.nX0 nX0 nX0 cXcXnXw nX0 nX8 e w 0 0 nXnX0 $ cXw $ 0 nX0 nX8 cXw nX0 0 MX0 8 cXw w 0 0 w 0 bXcXL.nX0 nX0 nX0 cXcXnXw nX0 nX8 ",
"cXMX0 0 nX0 nX0 cXcX0 nXw 0 nX8 cXL.0 0 0 nX0 $ cXe nXnXnX0 nX8 cXw nXMXbX0 0 8 cXnXnX0 0 nX0 0 cXMX0 0 nX0 nX0 cXcX0 nXw 0 nX8 ",
"cXMXnX0 nX0 nXbXcXcX0 nXw 0 nXbXcXL.0 0 0 nX$ 8 cXw 0 nXnX0 nX8 cXw nX0 bX0 nX7 cXw nXnXnX0 $ bXcXMXnX0 nX0 nXbXcXcX0 nXw 0 nXbX",
"e L.0 0 nX0 nXbXcXL.0 0 nXnXbXbXcXcX$ nX0 nX0 8 e w 0 w 0 0 nX8 cXw 0 0 0 0 0 7   w 0 w nX0 0 bXe L.0 0 nX0 nXbXcXL.0 0 nXnXbXbX",
"e MXnX0 nX0 MXbXcXe w 0 nXw nXbXcXcX$ 0 0 nX0 8 cXe 0 0 nX0 $ 8 cXw 0 0 0 0 0 8 cXw nXe nX0 nXbXe MXnX0 nX0 MXbXcXe w 0 nXw nXbX",
"e L.nXnXnXnXnX0 cXcXnXnXnXnX0 bXcXMX0 nX0 nXnX8 cXe 0 0 0 nX0 8 cXnX0 0 0 0 $ 8 cXw nXw nXnXnX8 e L.nXnXnXnXnX0 cXcXnXnXnXnX0 bX",
"e cXnXnXnXnX0 0 cXcXnXw nXnX0 bXcXL.0 0 0 0 0 8   e 0 0 nXnX0 $ cXe nX8 0 0 0 8 cXw w w nXnX0 8 e cXnXnXnXnX0 0 cXcXnXw nXnX0 bX",
"cXL.nXnXnXnX0 0 cXe nXnXw nX0 bXcXMX0 0 $ nXnX$ cXcXnX$ 0 0 $ $ L.w 0 8 0 0 0 8 cXnXnXnXw 0 $ 8 cXL.nXnXnXnX0 0 cXe nXnXw nX0 bX",
"cXL.0 nXnXnXnX0 cXnX0 nXw 0 $ 8 cXMX0 0 0 0 nX8   w w 0 nX0 $ $ cXw 0 0 8 0 $ $ cXnXw 0 w nX0 bXcXL.0 nXnXnXnX0 cXnX0 nXw 0 $ 8 ",
"cXe 0 nXnX0 nX0 e nX0 nXw 0 $ bXcXMX0 0 0 nX0 8 cXw e 0 nXnX0 bXcXw 0 MX0 0 0 7 cXw 0 0 0 w 0 bXcXe 0 nXnX0 nX0 e nX0 nXw 0 $ bX",
"cXL.0 nXnX0 nX8 cXnXnXnXe nX0 8 cXL.nX0 0 nX0 $ cXw w nXnX0 nX8 cXw 0 MX0 0 nX8 cXw 0 0 0 nXnXbXcXL.0 nXnX0 nX8 cXnXnXnXe nX0 8 ",
"cXL.0 nXnX0 nXbXcXw 0 0 nX0 $ 8 cXL.$ nXnXnX$ $ cXL.w 0 nX0 0 7 cXw 0 nXMXnXnX7 cXnX0 0 0 0 0 0 cXL.0 nXnX0 nXbXcXw 0 0 nX0 $ 8 ",
"cXe 0 nXnX0 nX0   w nX0 nX$ nX8 cXL.0 w nXMXbX8 cXcXnXnXnX0 $ 6 cXw 0 nXL.nXnX7 cXw 0 e 0 0 0 0 cXe 0 nXnX0 nX0   w nX0 nX$ nX8 ",
"cXcXnXnXnX0 nX0   w 0 0 nX$ 0 bXcXL.nXw nXnXbX8 cXcXnXnXnX0 8 7 cXw 8 MXL.nXnX7   w 0 nXnXnXnXbXcXcXnXnXnX0 nX0   w 0 0 nX$ 0 bX",
"cXe nXnXnX0 0 0 cXw 0 0 nX$ 0 0 cXL.$ nX0 nX$ $ cXcXnX0 0 0 8 8 cXw 8 0 MXnX0 7 cXe nXw 0 nX0 8 cXe nXnXnX0 0 0 cXw 0 0 nX$ 0 0 ",
"cXL.nX0 nX0 0 bXcXw 0 0 nXnX0 0 cXMX$ nX0 0 $ $ cXcXnXnX0 0 8 7 cXw 8 0 L.0 0 7 cXnXw nXw w $ 8 cXL.nX0 nX0 0 bXcXw 0 0 nXnX0 0 ",
"cXL.nX0 nXnX0 bXcXw nX0 w e $ 0 cXcX0 nXnX0 0 0 L.cXw nX0 $ MX7 cXnX8 nXL.nX$ 7 cXnX0 nXw nX0 bXcXL.nX0 nXnX0 bXcXw nX0 w e $ 0 ",
"cXw nX0 nXnXnXbXe nXnXnXw w $ $ e L.$ nXnXw $ $ e L.w 0 0 $ MX7 cXnX8 0 L.nX$ 8 cXnXnX$ nXw $ nXcXw nX0 nXnXnXbXe nXnXnXw w $ $ ",
"cXe w nXw w MX0 cXw e w cXcXnX0 cXcX$ nXnXw 0 $   e e nXnXnXMX7 cXw $ MXe nX0 0 cXL.nXnXnXw nX8 cXe w nXw w MX0 cXw e w cXcXnX0 ",
"w w 0 0 0 0 0 0 $ w MXMXw 0 0 nX0 0 0 0 8 nX7 0 0 0 0 0 0 nXL.w w w 0 0 0 0 0 0 $ w MXMXw 0 0 nX0 0 0 0 8 nX7 0 0 0 0 0 0 nXL.w ",
"cX          cXcXcX    cXcX            cX                    cXcXcX          cXcXcX    cXcX            cX                    cXcX",
"cXcXe cXcXcXcXcXcXcXcXcXcXcXcXcXcXcXcXcXcXcXcXcXcXcXcXcXcXcXcXcXcXcXe cXcXcXcXcXcXcXcXcXcXcXcXcXcXcXcXcXcXcXcXcXcXcXcXcXcXcXcXcX",
"L.e L.w w L.L.w L.L.w L.L.L.e w L.L.e e w L.L.e L.e e e e L.e e L.e L.w w L.L.w L.L.w L.L.L.e w L.L.e e w L.L.e L.e e e e L.e e ",
"w e e e L.L.L.w nXw MXw e L.L.w L.e L.w w w L.L.L.w e e e e e w w e e e L.L.L.w nXw MXw e L.L.w L.e L.w w w L.L.L.w e e e e e w ",
"w L.w e L.e e L.MXw L.w w L.e L.w L.e L.L.MXL.e w L.L.L.L.w e e w L.w e L.e e L.MXw L.w w L.e L.w L.e L.L.MXL.e w L.L.L.L.w e e ",
"cXcXw w MXw MXMXw cXe cXcXMXMXw MXMXnXMX0 w nXw w MXw w MXMXcXcXcXcXw w MXw MXMXw cXe cXcXMXMXw MXMXnXMX0 w nXw w MXw w MXMXcXcX",
"                                                                                                                                ",
"  cXw L.cXcXcXw   cXcXcXcXcXe nX  cXcXMXL.L.cXcX  cXcXL.cXcXw nXcXcXw cXw w L.MX  cXcXcXcXe MXnXcXcXw cXcXcXe w   cXL.w w L.e w ",
"cXe nXnXMXnXe 0 cXL.L.cXMXMXnX$   w nXMXL.MX0 0   L.L.MXMXMX$ bXcXcXnXL.0 nXbXbXcXMXw w nXnX0 $ cXe MXMXMXnXnX$ cXL.MX0 bXMXnXnX",
"cXL.0 nX$ 0 L.0 e w nXnXw nXnXbXcXL.0 0 8 0 0 bX  e nXnXnXnXbX8 e MX0 MX0 nX$ 8 cXw e nX0 nX0 8 e MXnXnXw 0 0 0 cXnXnX0 $ w 0 0 ",
"cXL.nXnX8 0 L.bXcXw nXw 0 nXnXbXcXnX$ 0 0 nX$ 8   cXnX0 nX8 $ 7 cXnX0 MX0 0 $ 8 cXw nX0 nXnXbX8 e L.nXnXw 0 nX0   nXnXnXnXw bX$ ",
"cXL.nXnX8 nXL.bXcXnX0 nXnXnXnXbXL.L.0 w 0 nX$ 8 cXcXnXnX0 0 $ 7 cXnXnXnXnX0 nX7 cXMX0 0 nX0 0 8 e L.nXnXnXnXnXbXcXMXnXw nXnX$ bX",
"cXL.nXnX8 0 MXbXcXnXnX0 w nXnXbXe MX$ nXnX0 $ 8 cX0 w e 0 0 $ 7 cXnXnX0 nX0 0 7 cXMX0 nXMX0 nX8 cXL.nX0 nX0 nX0 cXcXnXw nX0 nX8 ",
"cXL.nX0 $ nXnX0 cXw nX0 nXe nX0 cXL.0 w 0 0 bXbX  w w 0 0 0 bX8 cXnXnXnXnX0 0 $ cXw 0 w nX0 0 8 cXMX0 0 nX0 nX0 cXcX0 nXw 0 nX8 ",
"cXL.0 0 0 MX0 0 cXnXe 0 0 nX0 bXcXL.0 nX0 0 7 0 w w cX0 0 0 8 7 cXw nXnXnX0 nX8 cXw nXw nXnXnX8 cXMXnX0 nX0 nXbXcXcX0 nXw 0 nXbX",
"cXw 0 0 0 w 0 0 cXw w 0 nXnX0 bXcXcX0 nX0 nX8 nXcXw nXnX0 0 nX6 L.L.0 nXnX0 0 $ cXnXnXw w nX$ 8 e L.0 0 nX0 nXbXcXL.0 0 nXnXbXbX",
"e w nX0 0 MXnX0 e $ 0 nXw e 0 bXcXL.nXw 0 0 0 nXcXe w 0 0 nX$ 7 L.w MXMXnX0 $ 8 cXnXw nX0 w $ 8 e MXnX0 nX0 MXbXcXe w 0 nXw nXbX",
"e w 0 nX0 nXnX0 cXnXnX$ 0 0 bX0 cXL.nXw 0 0 MXnXcX$ w 0 nX0 8 7 cXe nXMXMX0 0 7 cXw w 0 $ w 0 $ e L.nXnXnXnXnX0 cXcXnXnXnXnX0 bX",
"e L.8 w 0 nX0 8 cXnXnXnXnX0 nXbXcXnX0 0 0 nXnXnXcXnXnXw 0 0 bX7 MX0 0 nX0 0 nX8 cXnXnX0 bX0 0 0 e cXnXnXnXnX0 0 cXcXnXw nXnX0 bX",
"cXL.$ L.0 nXnXbX  w 0 nXw nXL.bXcXnX$ nXnX0 0 0 cXw nX0 0 0 $ 8 cX0 bXnX0 MXnX7 cXw 0 0 $ 0 nX0 cXL.nXnXnXnX0 0 cXe nXnXw nX0 bX",
"cXcXbXe 0 nXnXbXcXe 0 nXnX0 MX0 L.nXnXnXw bX0 0 cXw nX0 0 0 $ 8 cXnX0 nXMXnXnX7 cXw $ 0 0 0 nXbXcXL.0 nXnXnXnX0 cXnX0 nXw 0 $ 8 ",
"cXcX$ MX0 nXnX0 cXcX0 nX0 nXnXbXL.MX0 nXw 8 0 0 cXcX0 nXnX0 0 8 cXnX0 nX0 0 nX7   L.0 0 0 0 0 8 cXe 0 nXnX0 nX0 e nX0 nXw 0 $ bX",
"cXL.nXw nXnX0 0 cXcXnX0 nXw nXbXcXL.nX0 nX8 nXnXcXw w nXnX0 $ 8 cX0 0 nX0 nX0 7 cXw 0 0 nX$ $ 8 cXL.0 nXnX0 nX8 cXnXnXnXe nX0 8 ",
"cXMXnXw nXnX0 0 cXL.nX0 nXnX0 bXL.MXnX0 nX8 nXMXw w w nXnX0 0 8 cXnX0 nX0 nX0 6 cXnX0 nXw 0 0 bXcXL.0 nXnX0 nXbXcXw 0 0 nX0 $ 8 ",
"cXMXnXw nXnXnX0 cXw MX0 nXw nXbXL.L.w 0 0 0 0 MXcXw e 0 0 $ nX8 cXnX0 nXnXnX$ 7 cXnX$ nXnX0 0 bXcXe 0 nXnX0 nX0   w nX0 nX$ nX8 ",
"cXMX$ e L.0 nX0 cXw L.nX0 w nXbXe L.w $ 0 nX8 MXcXw w 0 w nX$ 8 cXnXnXMXnXnX0 7 cXw 0 nXnXnXnX$ cXcXnXnXnX0 nX0   w 0 0 nX$ 0 bX",
"cXL.bXe w nXMXnXcXe cX0 w e MXnXcXL.L.0 nXw 8 nX  e e nXw nXMXbXcXw MXnXnXMXnX8   cXw nXMXe MX0 cXcXw w w nXnXnX  e nXnXw 0 nXnX",
"0 8 nX0 0 0 0 0 0 nXL.w w nX0 0 0 nX0 0 8 0 8 nX0 0 0 0 $ 0 nX8 0 8 nX0 0 0 0 0 0 nXL.w w nX0 0 0 nX0 0 8 0 8 nX0 0 0 0 $ 0 nX8 ",
"cX                      cX  cX        cX  cX    cXcX            cX                      cX  cX        cX  cX    cXcX            ",
"cXcXcXcXcXcXcXcXcXcXcXcXcXcXcXcXcXcXcXcXcXcXcXcXcXcXcXcXcXcXcXcXcXcXcXcXcXcXcXcXcXcXcXcXcXcXcXcXcXcXcXcXcXcXcXcXcXcXcXcXcXcXcXcX",
"e cXe L.e e e e e e L.L.e L.L.L.w L.L.e w L.L.e w w L.w w e e e e cXe L.e e e e e e L.L.e L.L.L.w L.L.e w L.L.e w w L.w w e e e ",
"L.L.e e e e e w L.L.w w w w e L.L.MXL.L.L.MXw MXMXw w e e e L.L.L.L.e e e e e w L.L.w w w w e L.L.MXL.L.L.MXw MXMXw w e e e L.L.",
"e e L.w e L.e w e L.w w L.e e L.L.e e w w L.L.nXw e e L.L.L.w L.e e L.w e L.e w e L.w w L.e e L.L.e e w w L.L.nXw e e L.L.L.w L.",
"MXnXMXMXw MXw MXMXcXcXe cXnXMXMXw MXw w $ nX0 nXw MXMXL.MXw w 0 MXnXMXMXw MXw MXMXcXcXe cXnXMXMXw MXw w $ nX0 nXw MXMXL.MXw w 0 "
};
